<svg xmlns="http://www.w3.org/2000/svg" viewBox="0 0 213 242.84"><defs><style>.cls-1{fill:#454545;}.cls-2{fill:#fbf9f7;}</style></defs><g id="Layer_2" data-name="Layer 2"><g id="Layer_1-2" data-name="Layer 1"><path class="cls-1" d="M0,65.74V177.09a10.07,10.07,0,0,0,5,8.72l96.44,55.68a10,10,0,0,0,10.06,0L208,185.81a10.07,10.07,0,0,0,5-8.72V65.74A10.09,10.09,0,0,0,208,57L111.53,1.35a10,10,0,0,0-10.06,0L5,57A10.09,10.09,0,0,0,0,65.74Z"/><path class="cls-2" d="M106.79,14.29,177,55q7,4.07,7.17,9.71t-6.74,9.59L124.9,104.45q-6.9,4-16.67,3.84a33.68,33.68,0,0,1-16.79-4.19L21.24,63.39Zm2,80.83L161.32,65c.56-.32.55-.65,0-1l-53.38-31a1.57,1.57,0,0,0-1.68,0L53.73,63.18c-.55.32-.55.64,0,1l53.37,31A1.59,1.59,0,0,0,108.8,95.12Z"/><path class="cls-2" d="M30.58,82.43,85.09,113.9a34.27,34.27,0,0,1,12.23,12.75q5.07,8.61,5.07,16.76V225L86,215.53v-34L29.71,149.07v34L13.4,173.65V92q0-8.15,5-10.94T30.58,82.43Zm-.87,48.1L86,163V133.92a1.62,1.62,0,0,0-.86-1.48L30.58,101q-.87-.5-.87.48Z"/></g></g></svg>
